<?xml version="1.0" encoding="utf-8"?>
<!-- Generator: Adobe Illustrator 16.0.0, SVG Export Plug-In . SVG Version: 6.00 Build 0)  -->
<!DOCTYPE svg PUBLIC "-//W3C//DTD SVG 1.1//EN" "http://www.w3.org/Graphics/SVG/1.1/DTD/svg11.dtd">
<svg version="1.1" id="Layer_1" xmlns="http://www.w3.org/2000/svg" xmlns:xlink="http://www.w3.org/1999/xlink" x="0px" y="0px"
	 width="185.562px" height="169.249px" viewBox="0 0 185.562 169.249" enable-background="new 0 0 185.562 169.249"
	 xml:space="preserve">
<path fill="#FFFFFF" d="M78.567,169.249l-0.541-0.043c-5.192-0.411-23.971-5.276-28.704-7.438l-0.493-0.225l-0.432-0.326
	c-2.1-1.583-4.589-4.774-4.53-10.983c0.036-3.771,0.992-8.305,2.842-13.479c0.422-1.18,0.887-2.384,1.392-3.608
	c-3.578,2.824-6.984,5.056-10.132,6.641c-3.78,1.901-7.208,2.865-10.192,2.865c-0.278,0-0.552-0.008-0.822-0.023l-1.309,3.553
	l-5.486-6.416c-1.922-2.25-6.243-9.48-8.011-12.484c-1.769-3.005-5.994-10.294-7.032-13.072l-0.189-0.508l-0.075-0.537
	c-0.365-2.604,0.131-6.621,4.563-10.969c2.69-2.64,6.573-5.17,11.54-7.521c1.131-0.535,2.31-1.058,3.532-1.566
	c-4.265-0.503-8.083-1.272-11.323-2.294c-3.444-1.084-6.254-2.463-8.352-4.098c-3.405-2.653-4.456-5.604-4.737-7.611L0,78.567
	l0.043-0.541c0.232-2.915,2.295-11.103,3.172-14.487C4.093,60.151,6.265,51.984,7.48,49.32l0.225-0.492l0.326-0.432
	c1.559-2.067,4.691-4.53,10.76-4.53c5.539,0,11.977,2.039,17.313,4.24c-0.824-1.044-1.603-2.082-2.333-3.106
	c-3.192-4.481-5.347-8.595-6.404-12.228c-1.736-5.964-0.208-9.726,1.38-11.832l0.326-0.432l0.411-0.352
	c2.251-1.922,9.481-6.24,12.486-8.007c3.005-1.768,10.294-5.991,13.074-7.027l0.507-0.189l0.536-0.075
	c0.462-0.064,0.934-0.097,1.401-0.097c3.569,0,7.019,1.813,10.254,5.39c2.526,2.793,4.947,6.689,7.193,11.581
	c0.409,0.89,0.81,1.808,1.202,2.753c0.155-1.319,0.337-2.601,0.545-3.84c0.911-5.427,2.296-9.86,4.116-13.177
	c2.988-5.446,6.73-7.025,9.342-7.392L90.678,0l0.54,0.043c5.191,0.411,23.973,5.276,28.709,7.437l0.494,0.225l0.432,0.326
	c2.1,1.583,4.59,4.774,4.53,10.984c-0.037,3.77-0.993,8.304-2.844,13.479c-0.422,1.18-0.886,2.384-1.393,3.608
	c3.581-2.825,6.987-5.058,10.138-6.643c3.779-1.902,7.209-2.867,10.193-2.867c2.638,0,4.937,0.725,6.832,2.155l0.433,0.326
	l0.351,0.411c1.922,2.25,6.239,9.48,8.007,12.484s5.991,10.293,7.028,13.072l0.188,0.507l0.076,0.537
	c0.363,2.604-0.132,6.62-4.563,10.968c-2.689,2.64-6.572,5.17-11.538,7.52c-1.132,0.536-2.31,1.058-3.532,1.566
	c4.264,0.503,8.08,1.273,11.319,2.294c3.443,1.085,6.253,2.464,8.35,4.099c1.582,1.233,2.654,2.529,3.379,3.766l1.771,0.228
	l-0.37,4.695c-0.343,4.347-5.625,24.736-7.437,28.706l-1.655,3.626l-1.466-0.317c-1.828,1.205-4.456,2.145-8.203,2.145
	c-5.535,0-11.969-2.037-17.303-4.238c0.824,1.046,1.603,2.082,2.333,3.107c3.191,4.48,5.346,8.594,6.402,12.226
	c1.736,5.963,0.207,9.725-1.381,11.83l-0.326,0.432l-0.411,0.352c-2.25,1.92-9.48,6.24-12.484,8.008
	c-3.005,1.769-10.295,5.995-13.07,7.031l-0.508,0.188l-0.535,0.075c-0.463,0.065-0.935,0.098-1.403,0.098
	c-3.567,0-7.018-1.813-10.253-5.39c-2.527-2.793-4.947-6.69-7.193-11.582c-0.409-0.892-0.811-1.811-1.203-2.757
	c-0.156,1.321-0.339,2.604-0.547,3.846c-0.911,5.427-2.297,9.86-4.117,13.178c-2.99,5.445-6.73,7.024-9.342,7.391L78.567,169.249z
	 M54.187,153.08c4.567,1.743,19.007,5.483,23.825,6.17c0.94-0.605,3.324-3.536,4.794-12.283c1.603-9.548,1.475-22.026-0.362-35.14
	l-0.687-4.9l11.908-1.665l0.687,4.898c1.785,12.739,4.965,24.54,8.955,33.227c3.856,8.397,7.068,10.766,8.173,11.147
	c1.753-0.833,5.692-2.973,10.779-5.966c5.099-3.001,8.886-5.411,10.457-6.533c0.226-1.122-0.19-4.876-5.298-12.046
	c-5.614-7.883-14.528-16.614-25.099-24.586l-3.947-2.977l7.234-9.607l3.953,2.981c8.004,6.038,16.247,11.103,23.837,14.646
	c6.961,3.249,13.016,5.039,17.051,5.039c1.443,0,2.244-0.236,2.615-0.424c0.647-1.829,1.914-6.115,3.394-11.827
	c1.483-5.725,2.458-10.093,2.778-12c-0.42-0.641-1.952-2.046-6.129-3.363c-5.188-1.635-12.689-2.536-21.121-2.536
	c-6.41,0-13.191,0.495-20.154,1.47l-4.895,0.686l-1.681-11.906l4.904-0.687c13.119-1.838,25.157-5.129,33.899-9.268
	c4.941-2.338,7.535-4.357,8.842-5.639c1.071-1.051,1.496-1.811,1.636-2.222c-0.834-1.755-2.973-5.696-5.964-10.782
	c-2.996-5.093-5.403-8.877-6.527-10.451c-0.144-0.029-0.332-0.049-0.566-0.049c-1.181,0-5.732,0.566-14.782,7.846
	c-6.966,5.604-14.528,13.63-21.293,22.599l-2.979,3.949l-9.601-7.24l2.979-3.95c7.977-10.576,14.164-21.417,17.42-30.529
	c1.842-5.148,2.248-8.412,2.267-10.243c0.015-1.529-0.231-2.369-0.425-2.749c-4.569-1.744-19.013-5.485-23.83-6.172
	c-0.94,0.605-3.323,3.536-4.792,12.283c-1.603,9.545-1.473,22.025,0.364,35.139l0.687,4.898l-11.906,1.672l-0.687-4.901
	c-1.785-12.741-4.966-24.542-8.956-33.229c-1.8-3.919-3.715-7.057-5.539-9.073c-1.225-1.354-2.142-1.908-2.633-2.074
	c-1.754,0.833-5.696,2.971-10.785,5.964c-5.099,2.999-8.886,5.408-10.456,6.531c-0.226,1.122,0.19,4.877,5.299,12.049
	c5.615,7.882,14.53,16.615,25.102,24.589l3.95,2.979l-7.242,9.599l-3.949-2.979c-8.005-6.038-16.25-11.103-23.843-14.647
	c-6.963-3.25-13.021-5.04-17.057-5.04c-1.42,0-2.22,0.229-2.598,0.414c-0.646,1.823-1.916,6.118-3.399,11.845
	c-1.485,5.734-2.46,10.107-2.779,12.009c0.434,0.647,1.976,2.042,6.123,3.349c5.19,1.635,12.691,2.536,21.124,2.536
	c6.412,0,13.195-0.495,20.159-1.471l4.896-0.687l1.677,11.909l-4.903,0.687c-13.118,1.837-25.158,5.128-33.903,9.267
	c-4.941,2.338-7.536,4.358-8.843,5.64c-1.071,1.052-1.496,1.811-1.636,2.223c0.835,1.756,2.974,5.696,5.967,10.781
	c2.996,5.089,5.401,8.871,6.527,10.446c0.145,0.03,0.335,0.051,0.574,0.051c1.18,0,5.731-0.566,14.779-7.845
	c6.966-5.603,14.527-13.627,21.292-22.597l2.978-3.948l9.604,7.237l-2.98,3.952c-7.978,10.575-14.164,21.417-17.421,30.527
	c-1.84,5.147-2.248,8.412-2.266,10.243C53.747,151.859,53.993,152.698,54.187,153.08z"/>
<path fill="#3388F4" d="M145.331,32.698l-0.005,0.002c-7.154-5.396-26.775,8.583-43.873,31.252l-1.702-1.283
	c17.099-22.669,25.201-45.336,18.118-50.679l0.005-0.01c-4.191-1.912-22.453-6.643-27.046-7.007l0.004,0.012
	c-8.873,1.243-12.865,25.002-8.925,53.122l-2.108,0.296C75.859,30.285,65.561,8.527,56.773,9.757l0.002-0.005
	c-3.567,1.33-21.194,11.705-24.078,14.167l0.004,0.004c-5.395,7.153,8.583,26.775,31.252,43.874l-1.282,1.7
	c-22.67-17.099-45.337-25.2-50.679-18.117l-0.011-0.005c-1.558,3.414-6.71,23.317-7.006,27.043l0.011,0
	c1.243,8.872,25.002,12.864,53.122,8.923l0.297,2.11c-28.121,3.938-49.877,14.237-48.647,23.025H9.752
	c1.331,3.565,11.707,21.192,14.169,24.075l0.002-0.005c7.152,5.396,26.776-8.581,43.874-31.251l1.702,1.282
	c-17.099,22.669-25.203,45.335-18.118,50.679l-0.004,0.011c4.19,1.912,22.451,6.642,27.041,7.006l0.001-0.013
	c8.872-1.243,12.864-25.002,8.925-53.121l2.109-0.294c3.938,28.118,14.238,49.876,23.024,48.645l0.006,0.004
	c3.562-1.329,21.188-11.703,24.07-14.164l-0.004-0.006c5.394-7.15-8.583-26.774-31.252-43.872l1.282-1.703
	c22.669,17.1,45.335,25.203,50.678,18.12l0.013,0.002c1.556-3.407,6.711-23.306,7.006-27.039l-0.012-0.002
	c-1.241-8.872-25.002-12.864-53.121-8.924l-0.297-2.11c28.119-3.94,49.877-14.237,48.646-23.025l0.003-0.001
	C158.165,53.203,147.791,35.581,145.331,32.698"/>
<path fill="#FFFFFF" d="M186.138,113.433c0.119-1.837-0.215-3.701-1.066-5.436c-1.624-3.304-4.552-5.199-8.032-5.199
	c-1.568,0-3.224,0.391-4.919,1.158l-0.064,0.029l-0.206,0.101l-0.572-8.34l1.716-0.842c2.842-1.395,5.039-3.747,6.187-6.621
	c1.191-2.993,1.093-6.303-0.271-9.079c-1.61-3.275-4.523-5.151-7.996-5.151c-0.395,0-0.795,0.024-1.196,0.074
	c-0.228-1.883-0.72-3.697-1.405-5.092c-1.606-3.267-4.878-5.295-8.536-5.295c-1.543,0-3.116,0.373-4.546,1.077
	c-4.672,2.296-7.15,7.027-6.808,12.986l0.012,0.525c-2.158-3.211-5.763-5.229-9.846-5.229c-0.823,0-1.657,0.085-2.479,0.251
	c-2.692,0.547-4.979,1.984-6.63,3.944c-1.344-3.071-4.063-5.014-7.466-5.281c0.155-1.889,0.033-3.766-0.359-5.271
	c-1.111-4.243-4.853-7.093-9.309-7.093c-0.89,0-1.787,0.118-2.668,0.348c-1.251,0.328-2.4,0.83-3.434,1.49
	c-0.333-1.82-1.079-3.537-2.214-5.03c-1.922-2.531-4.758-4.167-7.982-4.605c-0.522-0.072-1.053-0.108-1.578-0.108
	c-0.4,0-0.793,0.023-1.183,0.063c1.69-1.943,2.695-4.482,2.695-7.264c0-5.492-3.865-9.271-9.845-9.271h-0.07h-7.345
	c-12.219,0-19.645,4.764-24.836,17.373l-5.459,12.868h-4.043c-6.744,0-12.231,5.745-12.231,12.019c0,4.814,3.139,8.646,7.984,9.484
	L20.3,135.962c-1.259,3.088-1.732,4.551-1.732,6.855c0,5.359,4.386,9.597,9.984,9.597c5.109,0,9.453-3.091,11.918-8.481l0.084-0.19
	l0.567-2.476l22.214-55.591h6.918l-5.159,9.779c-1.285,2.355-1.879,4.044-2.177,6.225c-0.503,3.682,0.671,7.281,3.305,9.746
	c2.262,2.115,5.48,3.579,9.566,4.137l9.431,1.336c0.594,0.082,1.197,0.149,1.791,0.149c3.08,0,5.874-1.029,7.987-2.785
	c0.043,1.05,0.189,2.064,0.436,3.011c1.348,5.155,5.683,8.361,11.313,8.361c1.398,0,2.864-0.197,4.356-0.586l10.247-2.679
	c0.283-0.075,0.562-0.161,0.835-0.254l-0.649,3.412c-0.437,2.646-0.582,4.029-0.146,6.189c1.149,5.664,5.676,9.045,12.104,9.045
	c1.412-0.001,2.934-0.162,4.516-0.484l9.33-1.893c3.091-0.627,5.807-2.311,7.643-4.741c1.146-1.518,1.876-3.261,2.158-5.061
	c1.629,0.923,3.52,1.419,5.577,1.419c2.237,0,4.554-0.582,6.89-1.73l9.505-4.67c0.139-0.067,0.272-0.14,0.406-0.212
	c0.903-0.389,3.322-1.573,5.011-4.324C185.974,116.713,186.129,114.439,186.138,113.433"/>
<path fill="#FF0B57" d="M145.087,122.435l1.256-0.257c3.377-0.574,5.583,0.614,6.179,3.548c0.744,3.671-2.013,7.288-6.103,8.116
	l-1.259,0.256l-8.071,1.639c-6.186,1.254-10.262-0.538-11.155-4.941c-0.276-1.362-0.215-2.14,0.177-4.511l4.278-22.48l0.249-1.471
	c0.808-4.094,3.129-6.638,6.482-7.319c2.936-0.595,5.669,1.034,6.242,3.864c0.212,1.049,0.151,2.371-0.137,3.631l-0.228,1.572
	l-3.678,19.521L145.087,122.435z M131.451,86.45c-0.785-3.88,1.701-7.767,5.581-8.555c4.088-0.829,7.87,1.678,8.701,5.767
	c0.787,3.877-1.721,7.663-5.706,8.47C136.15,92.919,132.241,90.329,131.451,86.45"/>
<path fill="#FF0B57" d="M166.769,80.044l1.15-0.565c3.071-1.508,5.555-0.82,6.827,1.771c1.653,3.358-0.051,7.653-3.797,9.493
	l-1.152,0.567l-3.357,1.651l1.26,18.333l5.183-2.549l1.153-0.566c3.119-1.414,5.556-0.823,6.877,1.865
	c1.651,3.361-0.101,7.559-3.844,9.399l-1.154,0.565l-8.353,4.105c-4.704,2.312-8.861,1.373-10.7-2.373
	c-0.567-1.151-0.938-2.636-1.021-4.263l-0.127-2.443l-1.18-16.225c-4.032,1.981-6.613,1.581-8.029-1.299
	c-1.652-3.361,0.101-7.558,3.845-9.398l1.153-0.566l2.111-1.038l-0.524-7.372l-0.036-1.532c-0.257-4.163,1.244-7.167,4.221-8.63
	c2.69-1.321,5.65-0.391,6.876,2.105c0.566,1.15,1.031,3.069,1.065,5.078l0.11,4.594L166.769,80.044z"/>
<path fill="#FF0B57" d="M72.09,71.437h1.285c3.422,0,5.348,1.713,5.348,4.601c0,3.743-3.424,6.848-7.595,6.848h-1.285h-9.627
	l-23.427,57.658l-0.534,1.498c-1.712,3.742-4.386,5.777-7.702,5.777c-2.996,0-5.348-2.14-5.348-4.922c0-1.391,0.213-2.14,1.39-5.029
	l22.357-54.982H43.42h-1.283c-3.422-0.108-5.349-1.82-5.349-4.707c0-3.746,3.423-6.741,7.596-6.741h1.177h5.991l6.632-16.366
	c4.493-10.912,10.162-15.083,20.539-15.083h5.991h1.283c3.53,0.106,5.349,1.817,5.349,4.706c0,3.851-3.316,6.848-7.595,6.848h-1.284
	h-1.498c-5.882,0-8.879,2.139-11.231,7.808l-4.922,12.088H72.09z"/>
<path fill="#FF0B57" d="M88.349,101.148l1.273,0.175c3.375,0.569,5.069,2.418,4.665,5.385c-0.508,3.711-4.303,6.219-8.438,5.651
	l-1.271-0.174l-8.162-1.111c-6.253-0.854-9.512-3.89-8.904-8.343c0.188-1.376,0.501-2.091,1.653-4.198l11.449-19.816l0.718-1.305
	c2.11-3.599,5.141-5.236,8.532-4.775c2.969,0.404,5.011,2.844,4.621,5.705c-0.144,1.06-0.638,2.288-1.326,3.383l-0.732,1.411
	l-9.907,17.218L88.349,101.148z M87.334,62.684c0.535-3.922,4.164-6.774,8.086-6.237c4.132,0.563,6.878,4.176,6.315,8.31
	c-0.535,3.922-4.147,6.667-8.176,6.118C89.637,70.339,86.799,66.604,87.334,62.684"/>
<path fill="#FF0B57" d="M117.943,77.224l1.242-0.324c3.312-0.868,5.608,0.302,6.34,3.095c0.947,3.622-1.58,7.489-5.616,8.546
	l-1.242,0.325l-3.623,0.947l-2.424,18.216l5.591-1.463l1.242-0.323c3.339-0.764,5.606,0.302,6.365,3.199
	c0.946,3.623-1.605,7.387-5.643,8.443l-1.242,0.323l-9.004,2.356c-5.072,1.326-8.956-0.423-10.012-4.457
	c-0.325-1.243-0.394-2.773-0.15-4.385l0.363-2.418l2.081-16.133c-4.348,1.137-6.796,0.228-7.608-2.875
	c-0.948-3.623,1.607-7.387,5.643-8.443l1.242-0.325l2.276-0.596l0.958-7.329l0.271-1.506c0.578-4.132,2.65-6.776,5.859-7.615
	c2.897-0.758,5.611,0.744,6.317,3.435c0.323,1.242,0.396,3.213,0.028,5.19l-0.807,4.522L117.943,77.224z"/>
</svg>
