<?xml version="1.0" encoding="utf-8"?>
<!-- Generator: Adobe Illustrator 16.0.0, SVG Export Plug-In . SVG Version: 6.00 Build 0)  -->
<!DOCTYPE svg PUBLIC "-//W3C//DTD SVG 1.1//EN" "http://www.w3.org/Graphics/SVG/1.1/DTD/svg11.dtd">
<svg version="1.1" id="Layer_1" xmlns="http://www.w3.org/2000/svg" xmlns:xlink="http://www.w3.org/1999/xlink" x="0px" y="0px"
	 width="185.562px" height="185.485px" viewBox="0 0 185.562 185.485" enable-background="new 0 0 185.562 185.485"
	 xml:space="preserve">
<path fill="#BA4C42" d="M0,92.781C0,41.541,41.539,0,92.78,0c51.24,0,92.781,41.541,92.781,92.781
	c0,51.24-41.541,92.781-92.781,92.781C41.539,185.562,0,144.021,0,92.781"/>
<path fill="#BA4C42" d="M29.363,92.781c0-35.023,28.392-63.417,63.417-63.417c35.023,0,63.418,28.393,63.418,63.417
	c0,35.025-28.395,63.417-63.418,63.417C57.755,156.198,29.363,127.806,29.363,92.781"/>
<path fill="#FFFFFF" d="M52.216,126.817c18.799,22.401,52.199,25.326,74.602,6.526c12.475-10.468,18.9-25.462,18.91-40.565h0.006
	v-52.95H92.78v0.006c-12.02-0.006-24.107,4.048-34.036,12.38C36.34,71.015,33.416,104.416,52.216,126.817"/>
<path fill="#BA4C42" d="M80.687,92.781c0-6.681,5.412-12.096,12.094-12.096c6.68,0,12.096,5.415,12.096,12.096
	c0,6.677-5.416,12.092-12.096,12.092C86.099,104.873,80.687,99.458,80.687,92.781"/>
</svg>
